<svg id="Layer_1" data-name="Layer 1" xmlns="http://www.w3.org/2000/svg" viewBox="0 0 1207 291"><defs><style>.cls-1{fill:#fff;}</style></defs><title>logo_horizontal_white</title><path class="cls-1" d="M204.17,128.29a37.25,37.25,0,0,0-5-10.38,32.28,32.28,0,0,0-13.73-11.43c-.71-.34-1.4-.7-2.16-1A51.15,51.15,0,0,0,164,102.2H124.21q-1.17,0-2.31.06a37,37,0,0,0-14.24,3.42c-.52.25-1,.55-1.51.81a36.79,36.79,0,0,0-10.88,8.62,42.24,42.24,0,0,0-7.64,13.4c-.05.15-.12.29-.17.44a51.74,51.74,0,0,0,0,33.11c.05.15.12.29.17.44a42.2,42.2,0,0,0,7.64,13.4,37,37,0,0,0,12.39,9.44c.78.37,1.6.68,2.41,1a38,38,0,0,0,11.83,2.42q1.14.06,2.31.06h42.86a49.48,49.48,0,0,0,16.24-2.48,30.25,30.25,0,0,0,15.89-11.88q7.39-10.7,7.41-28.94A58.68,58.68,0,0,0,204.17,128.29Zm-58,27.8a28.86,28.86,0,0,1-4.17,9.26,21.59,21.59,0,0,1-7.24,6.6,21.05,21.05,0,0,1-10.54,2.49c-.8,0-1.56-.06-2.31-.12a19.86,19.86,0,0,1-8.22-2.37,21.57,21.57,0,0,1-7.24-6.6,28.81,28.81,0,0,1-4.17-9.26,42.58,42.58,0,0,1,0-21.13,28.76,28.76,0,0,1,4.17-9.32,21.6,21.6,0,0,1,7.24-6.6,19.89,19.89,0,0,1,8.22-2.37c.76-.06,1.51-.12,2.31-.12A21.08,21.08,0,0,1,134.74,119a21.63,21.63,0,0,1,7.24,6.6,28.81,28.81,0,0,1,4.17,9.32,42.56,42.56,0,0,1,0,21.13Zm42.5.35q-.31,1.55-.72,2.92T187,162a22.5,22.5,0,0,1-1.1,2.3,17,17,0,0,1-2.74,3.74,15.9,15.9,0,0,1-3.5,2.69,18.38,18.38,0,0,1-4.29,1.75,40.52,40.52,0,0,1-10.64,1.28h-9.93A42.93,42.93,0,0,0,161,162.06a50.37,50.37,0,0,0,2.72-16.56A52.2,52.2,0,0,0,163,137a49.1,49.1,0,0,0-2-8.08,43.86,43.86,0,0,0-2.66-6.16,42.46,42.46,0,0,0-3.47-5.51h9.56a32.37,32.37,0,0,1,8.94,1.13,22,22,0,0,1,2.49.88,22.29,22.29,0,0,1,2.27,1.11,19.34,19.34,0,0,1,5.52,4.61,21.55,21.55,0,0,1,1.42,2,24,24,0,0,1,2.25,4.47q.46,1.21.83,2.52a42.93,42.93,0,0,1,1.46,11.55A56.87,56.87,0,0,1,188.65,156.45Z"/><path class="cls-1" d="M145.66,12.06C72.09,12.06,12.23,71.92,12.23,145.5S72.09,278.94,145.66,278.94,279.1,219.08,279.1,145.5,219.24,12.06,145.66,12.06Zm0,251.8A118.36,118.36,0,1,1,264,145.5,118.49,118.49,0,0,1,145.66,263.86Z"/><path class="cls-1" d="M715.78,82.79h39.82q14.65,0,25.25,4.3A46.18,46.18,0,0,1,798.22,99a47.38,47.38,0,0,1,10,18,76.88,76.88,0,0,1,3.19,22.54q0,27.88-13.14,42.29t-38.63,14.42H715.78Zm21.35,93.66h19.43a53.05,53.05,0,0,0,13.94-1.67A22.1,22.1,0,0,0,780.7,169a26.85,26.85,0,0,0,6.21-11.31q2.15-7.17,2.15-18.16a56.2,56.2,0,0,0-1.91-15.13,31.63,31.63,0,0,0-5.89-11.71,26,26,0,0,0-10.19-7.49,38.36,38.36,0,0,0-15-2.63h-19Z"/><path class="cls-1" d="M842.42,160.53a20.24,20.24,0,0,0,1.91,8.12,18.83,18.83,0,0,0,4.7,6.21,22.57,22.57,0,0,0,6.61,4,20.78,20.78,0,0,0,7.65,1.43,28.49,28.49,0,0,0,16.65-4.78,19.6,19.6,0,0,0,4.3-3.82q1.51-1.91,2.31-2.87L903,178.37a43.8,43.8,0,0,1-5.65,7,40.62,40.62,0,0,1-8.2,6.37,44.56,44.56,0,0,1-11.15,4.62,55.47,55.47,0,0,1-14.66,1.75,45.25,45.25,0,0,1-17.52-3.18,36.5,36.5,0,0,1-12.9-8.84,38.62,38.62,0,0,1-8-13.38,52,52,0,0,1,0-33.61,38.66,38.66,0,0,1,8-13.38,36.56,36.56,0,0,1,12.9-8.84,45.25,45.25,0,0,1,17.52-3.19A42.41,42.41,0,0,1,880.65,117a31.49,31.49,0,0,1,12.11,9.32,39.22,39.22,0,0,1,7,14.73A78.6,78.6,0,0,1,902,160.53Zm39.19-15a13,13,0,0,0-1-4.3,17.59,17.59,0,0,0-3.27-5.26,21.09,21.09,0,0,0-5.65-4.46,16.93,16.93,0,0,0-8.36-1.91q-8.6,0-13.94,4.7a21.5,21.5,0,0,0-6.93,11.23Z"/><path class="cls-1" d="M967.63,141.09a25,25,0,0,0-2.55-4,16.78,16.78,0,0,0-4.14-3.74,23.18,23.18,0,0,0-5.89-2.71,25.88,25.88,0,0,0-7.65-1q-6.85-.16-10.83,2t-4,5.81q0,3.51,3.74,5.18a41.73,41.73,0,0,0,9.4,2.71q5.65,1,12.27,2.15a52.35,52.35,0,0,1,12.27,3.58,25.69,25.69,0,0,1,9.4,6.85q3.74,4.38,3.74,12a25.27,25.27,0,0,1-3,12.66,26.3,26.3,0,0,1-8,8.76,35.27,35.27,0,0,1-11.47,5.1,53.77,53.77,0,0,1-13.38,1.67q-14.34,0-24-4.3t-15.05-10.35l14.65-11.31a20.71,20.71,0,0,0,9.4,7.49,35.43,35.43,0,0,0,13.86,2.55,21.7,21.7,0,0,0,6.37-.88,19.16,19.16,0,0,0,4.94-2.23,11,11,0,0,0,3.19-3,5.91,5.91,0,0,0,1.12-3.27q0-3.35-3.66-5a42.88,42.88,0,0,0-9.24-2.79q-5.58-1.11-12-2.31a51.15,51.15,0,0,1-12-3.74,25.4,25.4,0,0,1-9.24-7q-3.67-4.46-3.66-12.11a22.68,22.68,0,0,1,10.35-19.91,34.13,34.13,0,0,1,11.31-4.7,62.1,62.1,0,0,1,14-1.51,46.6,46.6,0,0,1,12.74,1.59,44,44,0,0,1,9.64,3.9,35.43,35.43,0,0,1,6.77,4.86,48.4,48.4,0,0,1,4.14,4.3Z"/><path class="cls-1" d="M995.34,82.79h19.43v19.75H995.34Zm0,32.81h19.43v80.6H995.34Z"/><path class="cls-1" d="M1106.21,194.46q0,8.6-3.11,14.1a23.32,23.32,0,0,1-8.68,8.76,37.41,37.41,0,0,1-13.22,4.46,109.75,109.75,0,0,1-16.89,1.2q-9.56,0-15.85-2.47a29.84,29.84,0,0,1-10.11-6.21,21,21,0,0,1-5.34-8.12,25.16,25.16,0,0,1-1.51-8.2h20.39a12.85,12.85,0,0,0,5.18,7.09q4.06,2.95,11.39,2.95,9.56,0,13.94-4.38t4.38-11.87v-8.6a23.25,23.25,0,0,1-5.26,4.22,32.72,32.72,0,0,1-5.89,2.71,35.61,35.61,0,0,1-6.13,1.51,37.47,37.47,0,0,1-5.66.48,35.61,35.61,0,0,1-13.94-2.71,31.59,31.59,0,0,1-11.15-7.81,36.08,36.08,0,0,1-7.33-12.35,52,52,0,0,1,0-32.65,36.13,36.13,0,0,1,7.33-12.34,31.65,31.65,0,0,1,11.15-7.81,35.67,35.67,0,0,1,13.94-2.71q8.76,0,13.86,2.71a29.74,29.74,0,0,1,8.76,7h.32v-7.81h19.43Zm-18.8-41.58a28.13,28.13,0,0,0-1-6.93,21.13,21.13,0,0,0-3.19-6.93,18.51,18.51,0,0,0-5.89-5.34,20.41,20.41,0,0,0-18.24,0,18.75,18.75,0,0,0-5.81,5.34,21.08,21.08,0,0,0-3.19,6.93,25.6,25.6,0,0,0,0,13.86,21,21,0,0,0,3.19,6.93,18.73,18.73,0,0,0,5.81,5.34,20.41,20.41,0,0,0,18.24,0,18.49,18.49,0,0,0,5.89-5.34,21.09,21.09,0,0,0,3.19-6.93A28.09,28.09,0,0,0,1087.41,152.88Z"/><path class="cls-1" d="M1125.32,115.61h19.43v8h.32a24.71,24.71,0,0,1,10.19-7.57,32.12,32.12,0,0,1,11.79-2.31q14.49,0,21.11,7t6.61,20.39v55.12h-19.43V147a20.22,20.22,0,0,0-.72-5.34,13.39,13.39,0,0,0-2.23-4.62,11.45,11.45,0,0,0-4.06-3.26,14.19,14.19,0,0,0-6.37-1.28,18.24,18.24,0,0,0-6.61,1.2,14.32,14.32,0,0,0-5.5,3.82,18.55,18.55,0,0,0-3.74,6.61,29.82,29.82,0,0,0-1.35,9.56v42.53h-19.43Z"/><path class="cls-1" d="M366.1,78.41a52.35,52.35,0,0,1,22.78,4.78,51,51,0,0,1,17,13,58.34,58.34,0,0,1,10.75,19,71.17,71.17,0,0,1,0,45.56,58.29,58.29,0,0,1-10.75,19,50.94,50.94,0,0,1-17,13,56.68,56.68,0,0,1-45.56,0,50.91,50.91,0,0,1-17-13,58.2,58.2,0,0,1-10.75-19,71.17,71.17,0,0,1,0-45.56,58.25,58.25,0,0,1,10.75-19,50.92,50.92,0,0,1,17-13A52.34,52.34,0,0,1,366.1,78.41Zm0,19.75a29,29,0,0,0-14.5,3.42,29.71,29.71,0,0,0-10,9.08,39.58,39.58,0,0,0-5.73,12.82,58.59,58.59,0,0,0,0,29.07,39.63,39.63,0,0,0,5.73,12.74,29.65,29.65,0,0,0,10,9.08,32.39,32.39,0,0,0,29,0,29.71,29.71,0,0,0,10-9.08,39.73,39.73,0,0,0,5.73-12.74,58.59,58.59,0,0,0,0-29.07,39.68,39.68,0,0,0-5.73-12.82,29.77,29.77,0,0,0-10-9.08A29,29,0,0,0,366.1,98.16Z"/><path class="cls-1" d="M433.86,114.09H453.3v6.85h.32a33.2,33.2,0,0,1,10.11-6.45,33.7,33.7,0,0,1,12.82-2.31,29.7,29.7,0,0,1,14,3.35,34.77,34.77,0,0,1,11,9.08A42.57,42.57,0,0,1,508.73,138a54.08,54.08,0,0,1,0,32.81,42.58,42.58,0,0,1-7.17,13.38,34.46,34.46,0,0,1-11.07,9.08,30.51,30.51,0,0,1-14.26,3.35q-8.76,0-13.94-2.71a31.4,31.4,0,0,1-9-7V220.5H433.86Zm37.91,64.67a17.69,17.69,0,0,0,9.08-2.15,17.19,17.19,0,0,0,5.89-5.65,24.11,24.11,0,0,0,3.19-7.88,39.91,39.91,0,0,0,0-17.36,24.16,24.16,0,0,0-3.19-7.89,17.23,17.23,0,0,0-5.89-5.65,20.41,20.41,0,0,0-18.24,0,17.43,17.43,0,0,0-5.81,5.65,24.11,24.11,0,0,0-3.19,7.89,39.91,39.91,0,0,0,0,17.36A24.05,24.05,0,0,0,456.8,171a17.39,17.39,0,0,0,5.81,5.65A17.58,17.58,0,0,0,471.78,178.77Z"/><path class="cls-1" d="M540.59,159a20.23,20.23,0,0,0,1.91,8.12,18.81,18.81,0,0,0,4.7,6.21,22.59,22.59,0,0,0,6.61,4,20.79,20.79,0,0,0,7.65,1.43A28.48,28.48,0,0,0,578.1,174a19.6,19.6,0,0,0,4.3-3.82q1.51-1.91,2.31-2.87l16.41,9.56a43.66,43.66,0,0,1-5.65,7,40.6,40.6,0,0,1-8.2,6.37,44.53,44.53,0,0,1-11.15,4.62,55.51,55.51,0,0,1-14.66,1.75,45.23,45.23,0,0,1-17.52-3.19,36.5,36.5,0,0,1-12.9-8.84,38.63,38.63,0,0,1-8-13.38,52,52,0,0,1,0-33.61,38.66,38.66,0,0,1,8-13.38,36.56,36.56,0,0,1,12.9-8.84,45.23,45.23,0,0,1,17.52-3.19,42.43,42.43,0,0,1,17.36,3.27,31.5,31.5,0,0,1,12.11,9.32,39.21,39.21,0,0,1,7,14.73A78.59,78.59,0,0,1,600.16,159Zm39.19-15a13,13,0,0,0-1-4.3,17.6,17.6,0,0,0-3.27-5.26,21.12,21.12,0,0,0-5.65-4.46,16.94,16.94,0,0,0-8.36-1.91q-8.6,0-13.94,4.7A21.49,21.49,0,0,0,540.59,144Z"/><path class="cls-1" d="M613.86,114.09H633.3v8h.32a24.72,24.72,0,0,1,10.19-7.57,32.13,32.13,0,0,1,11.79-2.31q14.49,0,21.11,7t6.61,20.39V194.7H663.88V145.47a20.22,20.22,0,0,0-.72-5.34,13.4,13.4,0,0,0-2.23-4.62,11.45,11.45,0,0,0-4.06-3.27A14.2,14.2,0,0,0,650.5,131a18.26,18.26,0,0,0-6.61,1.19,14.33,14.33,0,0,0-5.5,3.82,18.55,18.55,0,0,0-3.74,6.61,29.82,29.82,0,0,0-1.35,9.56V194.7H613.86Z"/></svg>