<svg xmlns="http://www.w3.org/2000/svg" viewBox="0 0 762.55 293.56"><defs><style>.cls-1{fill:#222;}</style></defs><title>open_design_logo</title><g id="Layer_2" data-name="Layer 2"><g id="Layer_1-2" data-name="Layer 1"><path class="cls-1" d="M191.94,124.88a37.25,37.25,0,0,0-5-10.38,32.28,32.28,0,0,0-13.73-11.43c-.71-.34-1.4-.7-2.16-1a51.15,51.15,0,0,0-19.28-3.28H112q-1.17,0-2.31.06a37,37,0,0,0-14.24,3.42c-.52.25-1,.55-1.51.81A36.79,36.79,0,0,0,83,111.7a42.24,42.24,0,0,0-7.64,13.4c-.05.15-.12.29-.17.44a51.74,51.74,0,0,0,0,33.11c.05.15.12.29.17.44A42.2,42.2,0,0,0,83,172.48a37,37,0,0,0,12.39,9.44c.78.37,1.6.68,2.41,1a38,38,0,0,0,11.83,2.42q1.14.06,2.31.06h42.86a49.48,49.48,0,0,0,16.24-2.48A30.25,30.25,0,0,0,187,171q7.39-10.7,7.41-28.94A58.68,58.68,0,0,0,191.94,124.88Zm-58,27.8a28.86,28.86,0,0,1-4.17,9.26,21.59,21.59,0,0,1-7.24,6.6A21.05,21.05,0,0,1,112,171c-.8,0-1.56-.06-2.31-.12a19.86,19.86,0,0,1-8.22-2.37,21.57,21.57,0,0,1-7.24-6.6A28.81,28.81,0,0,1,90,152.68a42.58,42.58,0,0,1,0-21.13,28.76,28.76,0,0,1,4.17-9.32,21.6,21.6,0,0,1,7.24-6.6,19.89,19.89,0,0,1,8.22-2.37c.76-.06,1.51-.12,2.31-.12a21.08,21.08,0,0,1,10.54,2.49,21.63,21.63,0,0,1,7.24,6.6,28.81,28.81,0,0,1,4.17,9.32,42.56,42.56,0,0,1,0,21.13Zm42.5.35q-.31,1.55-.72,2.92t-.91,2.59a22.5,22.5,0,0,1-1.1,2.3,17,17,0,0,1-2.74,3.74,15.9,15.9,0,0,1-3.5,2.69,18.38,18.38,0,0,1-4.29,1.75,40.52,40.52,0,0,1-10.64,1.28H142.6a42.93,42.93,0,0,0,6.13-11.66,50.37,50.37,0,0,0,2.72-16.56,52.2,52.2,0,0,0-.68-8.48,49.1,49.1,0,0,0-2-8.08,43.86,43.86,0,0,0-2.66-6.16,42.46,42.46,0,0,0-3.47-5.51h9.56a32.37,32.37,0,0,1,8.94,1.13,22,22,0,0,1,2.49.88,22.29,22.29,0,0,1,2.27,1.11,19.34,19.34,0,0,1,5.52,4.61,21.55,21.55,0,0,1,1.42,2,24,24,0,0,1,2.25,4.47q.46,1.21.83,2.52a42.93,42.93,0,0,1,1.46,11.55A56.87,56.87,0,0,1,176.42,153Z"/><path class="cls-1" d="M133.44,8.65C59.86,8.65,0,68.51,0,142.09S59.86,275.52,133.44,275.52s133.44-59.86,133.44-133.44S207,8.65,133.44,8.65Zm0,251.8A118.36,118.36,0,1,1,251.8,142.09,118.49,118.49,0,0,1,133.44,260.45Z"/><path class="cls-1" d="M283.56,153.38h39.82q14.65,0,25.25,4.3A46.18,46.18,0,0,1,366,169.55a47.38,47.38,0,0,1,10,18,76.88,76.88,0,0,1,3.19,22.54q0,27.88-13.14,42.29T327.36,266.8H283.56ZM304.9,247h19.43a53.05,53.05,0,0,0,13.94-1.67,22.1,22.1,0,0,0,10.19-5.81,26.85,26.85,0,0,0,6.21-11.31q2.15-7.17,2.15-18.16A56.2,56.2,0,0,0,354.92,195,31.63,31.63,0,0,0,349,183.25a26,26,0,0,0-10.19-7.49,38.36,38.36,0,0,0-15-2.63h-19Z"/><path class="cls-1" d="M410.2,231.12a20.24,20.24,0,0,0,1.91,8.12,18.83,18.83,0,0,0,4.7,6.21,22.57,22.57,0,0,0,6.61,4,20.78,20.78,0,0,0,7.65,1.43,28.49,28.49,0,0,0,16.65-4.78,19.6,19.6,0,0,0,4.3-3.82q1.51-1.91,2.31-2.87L470.73,249a43.8,43.8,0,0,1-5.65,7,40.62,40.62,0,0,1-8.2,6.37A44.56,44.56,0,0,1,445.72,267a55.47,55.47,0,0,1-14.66,1.75,45.25,45.25,0,0,1-17.52-3.18,36.5,36.5,0,0,1-12.9-8.84,38.62,38.62,0,0,1-8-13.38,52,52,0,0,1,0-33.61,38.66,38.66,0,0,1,8-13.38,36.56,36.56,0,0,1,12.9-8.84,45.25,45.25,0,0,1,17.52-3.19,42.41,42.41,0,0,1,17.36,3.27,31.49,31.49,0,0,1,12.11,9.32,39.22,39.22,0,0,1,7,14.73,78.6,78.6,0,0,1,2.23,19.51Zm39.19-15a13,13,0,0,0-1-4.3,17.59,17.59,0,0,0-3.27-5.26,21.09,21.09,0,0,0-5.65-4.46,16.93,16.93,0,0,0-8.36-1.91q-8.6,0-13.94,4.7a21.5,21.5,0,0,0-6.93,11.23Z"/><path class="cls-1" d="M535.4,211.68a25,25,0,0,0-2.55-4,16.78,16.78,0,0,0-4.14-3.74,23.18,23.18,0,0,0-5.89-2.71,25.88,25.88,0,0,0-7.65-1q-6.85-.16-10.83,2t-4,5.81q0,3.51,3.74,5.18a41.73,41.73,0,0,0,9.4,2.71q5.65,1,12.27,2.15A52.35,52.35,0,0,1,538,221.64a25.69,25.69,0,0,1,9.4,6.85q3.74,4.38,3.74,12a25.27,25.27,0,0,1-3,12.66,26.3,26.3,0,0,1-8,8.76,35.27,35.27,0,0,1-11.47,5.1,53.77,53.77,0,0,1-13.38,1.67q-14.34,0-24-4.3T476.3,254.05L491,242.75a20.71,20.71,0,0,0,9.4,7.49,35.43,35.43,0,0,0,13.86,2.55,21.7,21.7,0,0,0,6.37-.88,19.16,19.16,0,0,0,4.94-2.23,11,11,0,0,0,3.19-3,5.91,5.91,0,0,0,1.12-3.27q0-3.35-3.66-5a42.88,42.88,0,0,0-9.24-2.79q-5.58-1.11-12-2.31a51.15,51.15,0,0,1-12-3.74,25.4,25.4,0,0,1-9.24-7Q480,218.06,480,210.41a22.68,22.68,0,0,1,10.35-19.91,34.13,34.13,0,0,1,11.31-4.7,62.1,62.1,0,0,1,14-1.51,46.6,46.6,0,0,1,12.74,1.59,44,44,0,0,1,9.64,3.9,35.43,35.43,0,0,1,6.77,4.86,48.4,48.4,0,0,1,4.14,4.3Z"/><path class="cls-1" d="M563.12,153.38h19.43v19.75H563.12Zm0,32.81h19.43v80.6H563.12Z"/><path class="cls-1" d="M674,265q0,8.6-3.11,14.1a23.32,23.32,0,0,1-8.68,8.76A37.41,37.41,0,0,1,649,292.36a109.75,109.75,0,0,1-16.89,1.2q-9.56,0-15.85-2.47a29.84,29.84,0,0,1-10.11-6.21,21,21,0,0,1-5.34-8.12,25.16,25.16,0,0,1-1.51-8.2h20.39a12.85,12.85,0,0,0,5.18,7.09q4.06,2.95,11.39,2.95,9.56,0,13.94-4.38t4.38-11.87v-8.6a23.25,23.25,0,0,1-5.26,4.22,32.72,32.72,0,0,1-5.89,2.71,35.61,35.61,0,0,1-6.13,1.51,37.47,37.47,0,0,1-5.66.48,35.61,35.61,0,0,1-13.94-2.71,31.59,31.59,0,0,1-11.15-7.81,36.08,36.08,0,0,1-7.33-12.35,52,52,0,0,1,0-32.65,36.13,36.13,0,0,1,7.33-12.34A31.65,31.65,0,0,1,617.67,187a35.67,35.67,0,0,1,13.94-2.71q8.76,0,13.86,2.71a29.74,29.74,0,0,1,8.76,7h.32V186.2H674Zm-18.8-41.58a28.13,28.13,0,0,0-1-6.93,21.13,21.13,0,0,0-3.19-6.93,18.51,18.51,0,0,0-5.89-5.34,20.41,20.41,0,0,0-18.24,0,18.75,18.75,0,0,0-5.81,5.34,21.08,21.08,0,0,0-3.19,6.93,25.6,25.6,0,0,0,0,13.86,21,21,0,0,0,3.19,6.93,18.73,18.73,0,0,0,5.81,5.34,20.41,20.41,0,0,0,18.24,0,18.49,18.49,0,0,0,5.89-5.34,21.09,21.09,0,0,0,3.19-6.93A28.09,28.09,0,0,0,655.19,223.47Z"/><path class="cls-1" d="M693.1,186.2h19.43v8h.32A24.71,24.71,0,0,1,723,186.59a32.12,32.12,0,0,1,11.79-2.31q14.49,0,21.11,7t6.61,20.39V266.8H743.11V217.58a20.22,20.22,0,0,0-.72-5.34,13.39,13.39,0,0,0-2.23-4.62,11.45,11.45,0,0,0-4.06-3.26,14.19,14.19,0,0,0-6.37-1.28,18.24,18.24,0,0,0-6.61,1.2,14.32,14.32,0,0,0-5.5,3.82,18.55,18.55,0,0,0-3.74,6.61,29.82,29.82,0,0,0-1.35,9.56V266.8H693.1Z"/><path class="cls-1" d="M337.88,0a52.35,52.35,0,0,1,22.78,4.78,51,51,0,0,1,17,13,58.34,58.34,0,0,1,10.75,19,69.28,69.28,0,0,1,3.74,22.78,69.27,69.27,0,0,1-3.74,22.78,58.29,58.29,0,0,1-10.75,19,50.94,50.94,0,0,1-17,13,56.68,56.68,0,0,1-45.56,0,50.91,50.91,0,0,1-17-13,58.2,58.2,0,0,1-10.75-19,69.21,69.21,0,0,1-3.74-22.78A69.22,69.22,0,0,1,287.3,36.8a58.25,58.25,0,0,1,10.75-19,50.92,50.92,0,0,1,17-13A52.34,52.34,0,0,1,337.88,0Zm0,19.75a29,29,0,0,0-14.5,3.42,29.71,29.71,0,0,0-10,9.08,39.58,39.58,0,0,0-5.73,12.82,58.59,58.59,0,0,0,0,29.07,39.63,39.63,0,0,0,5.73,12.74,29.65,29.65,0,0,0,10,9.08,32.39,32.39,0,0,0,29,0,29.71,29.71,0,0,0,10-9.08,39.73,39.73,0,0,0,5.73-12.74,58.59,58.59,0,0,0,0-29.07,39.68,39.68,0,0,0-5.73-12.82,29.77,29.77,0,0,0-10-9.08A29,29,0,0,0,337.88,19.75Z"/><path class="cls-1" d="M405.64,35.68h19.43v6.85h.32a33.2,33.2,0,0,1,10.11-6.45,33.7,33.7,0,0,1,12.82-2.31,29.7,29.7,0,0,1,14,3.35,34.77,34.77,0,0,1,11,9.08,42.57,42.57,0,0,1,7.17,13.38A51.63,51.63,0,0,1,483.05,76a51.61,51.61,0,0,1-2.55,16.41,42.58,42.58,0,0,1-7.17,13.38,34.46,34.46,0,0,1-11.07,9.08A30.51,30.51,0,0,1,448,118.2q-8.76,0-13.94-2.71a31.4,31.4,0,0,1-9-7v33.61H405.64Zm37.91,64.67a17.69,17.69,0,0,0,9.08-2.15,17.19,17.19,0,0,0,5.89-5.65,24.11,24.11,0,0,0,3.19-7.88,39.91,39.91,0,0,0,0-17.36,24.16,24.16,0,0,0-3.19-7.89,17.23,17.23,0,0,0-5.89-5.65,20.41,20.41,0,0,0-18.24,0,17.43,17.43,0,0,0-5.81,5.65,24.11,24.11,0,0,0-3.19,7.89,39.91,39.91,0,0,0,0,17.36,24.05,24.05,0,0,0,3.19,7.88,17.39,17.39,0,0,0,5.81,5.65A17.58,17.58,0,0,0,443.55,100.35Z"/><path class="cls-1" d="M512.36,80.6a20.23,20.23,0,0,0,1.91,8.12,18.81,18.81,0,0,0,4.7,6.21,22.59,22.59,0,0,0,6.61,4,20.79,20.79,0,0,0,7.65,1.43,28.48,28.48,0,0,0,16.65-4.78,19.6,19.6,0,0,0,4.3-3.82q1.51-1.91,2.31-2.87l16.41,9.56a43.66,43.66,0,0,1-5.65,7,40.6,40.6,0,0,1-8.2,6.37,44.53,44.53,0,0,1-11.15,4.62,55.51,55.51,0,0,1-14.66,1.75A45.23,45.23,0,0,1,515.71,115a36.5,36.5,0,0,1-12.9-8.84,38.63,38.63,0,0,1-8-13.38A49.15,49.15,0,0,1,492,76a49.15,49.15,0,0,1,2.79-16.8,38.66,38.66,0,0,1,8-13.38A36.56,36.56,0,0,1,515.71,37a45.23,45.23,0,0,1,17.52-3.19A42.43,42.43,0,0,1,550.59,37a31.5,31.5,0,0,1,12.11,9.32,39.21,39.21,0,0,1,7,14.73,78.59,78.59,0,0,1,2.23,19.51Zm39.19-15a13,13,0,0,0-1-4.3,17.6,17.6,0,0,0-3.27-5.26,21.12,21.12,0,0,0-5.65-4.46,16.94,16.94,0,0,0-8.36-1.91q-8.6,0-13.94,4.7a21.49,21.49,0,0,0-6.93,11.23Z"/><path class="cls-1" d="M585.64,35.68h19.43v8h.32a24.72,24.72,0,0,1,10.19-7.57,32.13,32.13,0,0,1,11.79-2.31q14.49,0,21.11,7t6.61,20.39v55.12H635.65V67.06a20.22,20.22,0,0,0-.72-5.34,13.4,13.4,0,0,0-2.23-4.62,11.45,11.45,0,0,0-4.06-3.27,14.2,14.2,0,0,0-6.37-1.27,18.26,18.26,0,0,0-6.61,1.19,14.33,14.33,0,0,0-5.5,3.82,18.55,18.55,0,0,0-3.74,6.61,29.82,29.82,0,0,0-1.35,9.56v42.53H585.64Z"/></g></g></svg>